<?xml version="1.0" standalone="no"?>
<!DOCTYPE svg PUBLIC "-//W3C//DTD SVG 1.1//EN" "http://www.w3.org/Graphics/SVG/1.1/DTD/svg11.dtd" >
<svg xmlns="http://www.w3.org/2000/svg">
<metadata>Generated by IcoMoon</metadata>
<defs>
<font id="icomoon" horiz-adv-x="1024">
<font-face units-per-em="1024" ascent="960" descent="-64" />
<missing-glyph horiz-adv-x="1024" />
<glyph unicode="&#x20;" horiz-adv-x="512" d="" />
<glyph unicode="&#xe900;" glyph-name="alternate_email" d="M511.967 21.335c-59.022 0-114.489 11.203-166.4 33.603s-97.066 52.797-135.466 91.197c-38.4 38.4-68.8 83.558-91.2 135.465-22.4 51.912-33.6 107.382-33.6 166.402 0 59.022 11.2 114.489 33.6 166.4s52.8 97.066 91.2 135.466c38.4 38.4 83.555 68.8 135.466 91.2s107.378 33.6 166.4 33.6c59.021 0 114.491-11.2 166.397-33.6 51.912-22.4 97.070-52.8 135.47-91.2s68.797-83.555 91.197-135.466c22.4-51.911 33.603-107.378 33.603-166.4v-61.867c0-41.953-14.403-77.691-43.203-107.197-28.8-29.512-64.174-44.268-106.132-44.268-24.888 0-48.353 5.33-70.4 16-22.042 10.665-40.535 25.953-55.465 45.865-20.623-20.623-43.914-36.091-69.868-46.397-25.953-10.312-53.156-15.468-81.6-15.468-59.022 0-109.334 20.797-150.934 62.397s-62.4 91.914-62.4 150.935c0 59.022 20.8 109.334 62.4 150.934s91.911 62.4 150.934 62.4c59.021 0 109.335-20.8 150.935-62.4s62.397-91.911 62.397-150.934v-61.867c0-18.488 6.047-34.135 18.135-46.935s27.377-19.2 45.865-19.2c18.488 0 33.777 6.4 45.865 19.2 12.093 12.8 18.135 28.447 18.135 46.935v61.867c0 95.289-33.065 176-99.2 242.134s-146.842 99.2-242.132 99.2c-95.289 0-176-33.067-242.134-99.2s-99.2-146.845-99.2-242.134c0-95.29 33.067-176.002 99.2-242.132 66.134-66.135 146.845-99.2 242.134-99.2h213.332v-85.335h-213.332zM511.967 320c35.556 0 65.779 12.447 90.668 37.335s37.33 55.112 37.33 90.667c0 35.556-12.442 65.778-37.33 90.666s-55.112 37.334-90.668 37.334c-35.556 0-65.778-12.444-90.666-37.334s-37.334-55.111-37.334-90.666c0-35.555 12.444-65.779 37.334-90.667s55.111-37.335 90.666-37.335z" />
<glyph unicode="&#xe901;" glyph-name="apps" d="M262.239 114.99c-22.893 0-42.492 8.152-58.796 24.456s-24.455 35.902-24.455 58.798c0 22.893 8.152 42.494 24.455 58.795 16.304 16.304 35.902 24.456 58.796 24.456s42.494-8.152 58.798-24.456c16.304-16.302 24.456-35.902 24.456-58.795 0-22.895-8.152-42.494-24.456-58.798s-35.902-24.456-58.798-24.456zM511.995 114.99c-22.893 0-42.494 8.152-58.795 24.456-16.304 16.304-24.456 35.902-24.456 58.798 0 22.893 8.152 42.494 24.456 58.795 16.302 16.304 35.902 24.456 58.795 24.456 22.895 0 42.494-8.152 58.798-24.456 16.304-16.302 24.456-35.902 24.456-58.795 0-22.895-8.152-42.494-24.456-58.798s-35.902-24.456-58.798-24.456zM761.751 114.99c-22.893 0-42.494 8.152-58.795 24.456-16.304 16.304-24.456 35.902-24.456 58.798 0 22.893 8.152 42.494 24.456 58.795 16.302 16.304 35.902 24.456 58.795 24.456 22.895 0 42.494-8.152 58.798-24.456 16.304-16.302 24.456-35.902 24.456-58.795 0-22.895-8.152-42.494-24.456-58.798s-35.902-24.456-58.798-24.456zM262.239 364.746c-22.893 0-42.492 8.152-58.796 24.456s-24.455 35.902-24.455 58.798c0 22.893 8.152 42.494 24.455 58.795 16.304 16.304 35.902 24.456 58.796 24.456s42.494-8.152 58.798-24.456c16.304-16.302 24.456-35.902 24.456-58.795 0-22.895-8.152-42.494-24.456-58.798s-35.902-24.456-58.798-24.456zM511.995 364.746c-22.893 0-42.494 8.152-58.795 24.456-16.304 16.304-24.456 35.902-24.456 58.798 0 22.893 8.152 42.494 24.456 58.795 16.302 16.304 35.902 24.456 58.795 24.456 22.895 0 42.494-8.152 58.798-24.456 16.304-16.302 24.456-35.902 24.456-58.795 0-22.895-8.152-42.494-24.456-58.798s-35.902-24.456-58.798-24.456zM761.751 364.746c-22.893 0-42.494 8.152-58.795 24.456-16.304 16.304-24.456 35.902-24.456 58.798 0 22.893 8.152 42.494 24.456 58.795 16.302 16.304 35.902 24.456 58.795 24.456 22.895 0 42.494-8.152 58.798-24.456 16.304-16.302 24.456-35.902 24.456-58.795 0-22.895-8.152-42.494-24.456-58.798s-35.902-24.456-58.798-24.456zM262.239 614.502c-22.893 0-42.492 8.152-58.796 24.456s-24.455 35.902-24.455 58.798c0 22.894 8.152 42.493 24.455 58.796s35.902 24.455 58.796 24.455c22.895 0 42.494-8.152 58.798-24.455s24.456-35.902 24.456-58.796c0-22.895-8.152-42.494-24.456-58.798s-35.902-24.456-58.798-24.456zM511.995 614.502c-22.893 0-42.494 8.152-58.795 24.456-16.304 16.304-24.456 35.902-24.456 58.798 0 22.894 8.152 42.493 24.456 58.796 16.302 16.303 35.902 24.455 58.795 24.455 22.895 0 42.494-8.152 58.798-24.455s24.456-35.902 24.456-58.796c0-22.895-8.152-42.494-24.456-58.798s-35.902-24.456-58.798-24.456zM761.751 614.502c-22.893 0-42.494 8.152-58.795 24.456-16.304 16.304-24.456 35.902-24.456 58.798 0 22.894 8.152 42.493 24.456 58.796 16.302 16.303 35.902 24.455 58.795 24.455 22.895 0 42.494-8.152 58.798-24.455s24.456-35.902 24.456-58.796c0-22.895-8.152-42.494-24.456-58.798s-35.902-24.456-58.798-24.456z" />
<glyph unicode="&#xe902;" glyph-name="arrow_back" d="M341.333 21.333l426.667 426.667-426.667 426.667-75.733-75.733 350.933-350.933-350.933-350.933 75.733-75.733z" />
<glyph unicode="&#xe903;" glyph-name="arrow_forward" d="M680.761 407.579h-492.129v80.842h492.129l-226.361 226.358 57.6 56.589 323.368-323.368-323.368-323.368-57.6 56.589 226.361 226.358z" />
<glyph unicode="&#xe904;" glyph-name="cal" d="M851.2 64c-88.887 0-176.713 19.379-263.467 58.133s-165.689 93.687-236.8 164.8c-71.111 71.113-126.045 150.046-164.8 236.8-38.755 86.755-58.133 174.578-58.133 263.467 0 12.8 4.267 23.467 12.8 32s19.2 12.8 32 12.8h172.8c9.955 0 18.845-3.378 26.667-10.133s12.445-14.755 13.867-24l27.733-149.333c1.422-11.378 1.067-20.978-1.067-28.8s-6.045-14.578-11.733-20.267l-103.467-104.533c14.222-26.313 31.111-51.733 50.667-76.267s41.067-48.179 64.533-70.933c22.046-22.046 45.154-42.487 69.333-61.333s49.779-36.087 76.8-51.733l100.267 100.267c6.4 6.4 14.754 11.2 25.067 14.4s20.446 4.087 30.4 2.667l147.2-29.867c9.954-2.846 18.133-8 24.533-15.467s9.6-15.821 9.6-25.067v-172.8c0-12.8-4.267-23.467-12.8-32s-19.2-12.8-32-12.8zM257.067 576l70.4 70.4-18.133 100.267h-94.933c3.555-29.155 8.533-57.955 14.933-86.4s15.645-56.533 27.733-84.267zM638.933 194.133c27.733-12.087 56-21.687 84.8-28.8s57.779-11.733 86.933-13.867v93.867l-100.267 20.267-71.467-71.467z" />
<glyph unicode="&#xe905;" glyph-name="check" d="M407.467 192l-243.2 243.2 60.8 60.798 182.4-182.398 391.465 391.467 60.802-60.8-452.267-452.267z" />
<glyph unicode="&#xe906;" glyph-name="close" d="M273.067 149.333l-59.733 59.733 238.933 238.933-238.933 238.933 59.733 59.733 238.933-238.933 238.933 238.933 59.733-59.733-238.933-238.933 238.933-238.933-59.733-59.733-238.933 238.933-238.933-238.933z" />
<glyph unicode="&#xe907;" glyph-name="colorize" d="M128 64v202.665l381.868 381.868-61.868 59.734 61.868 59.733 81.065-81.067 132.268 132.267c3.556 3.556 8 6.4 13.332 8.533 5.335 2.134 10.844 3.2 16.535 3.2 5.688 0 11.021-1.066 16-3.2 4.977-2.133 9.6-4.978 13.865-8.533l100.268-100.267c3.556-4.266 6.4-8.889 8.532-13.866 2.135-4.978 3.2-10.31 3.2-16.001 0-5.688-1.065-11.2-3.2-16.532-2.132-5.332-4.977-9.777-8.532-13.332l-131.2-131.2 81.068-83.2-60.8-60.8-59.735 61.865-381.865-381.865h-202.668zM213.333 149.332h83.199l354.135 356.268-81.068 81.065-356.267-354.132v-83.2zM690.132 586.665l102.4 102.4-39.465 39.468-102.4-102.4 39.465-39.468z" />
<glyph unicode="&#xe908;" glyph-name="colors" d="M369.067 85.333l-262.4 262.4c-7.111 7.113-12.445 14.933-16 23.467s-5.333 17.421-5.333 26.667c0 9.246 1.778 18.133 5.333 26.667s8.889 16.354 16 23.467l245.333 244.267-113.067 113.067 66.133 69.333 426.667-426.667c7.113-7.113 12.267-14.933 15.467-23.467s4.8-17.421 4.8-26.667c0-9.246-1.6-18.133-4.8-26.667s-8.354-16.354-15.467-23.467l-262.4-262.4c-7.113-7.113-14.933-12.446-23.467-16s-17.421-5.333-26.667-5.333c-9.245 0-18.133 1.779-26.667 5.333s-16.355 8.887-23.467 16zM419.2 625.067l-228.267-228.267h456.533l-228.267 228.267zM844.8 64c-25.6 0-47.287 9.067-65.067 27.2s-26.667 40.354-26.667 66.667c0 19.2 4.8 37.333 14.4 54.4s20.446 33.779 32.533 50.133l44.8 57.6 46.933-57.6c11.379-16.354 22.046-33.067 32-50.133s14.933-35.2 14.933-54.4c0-26.313-9.246-48.533-27.733-66.667s-40.533-27.2-66.133-27.2z" />
<glyph unicode="&#xe909;" glyph-name="contact" d="M512 21.332l-10.668 128h-10.665c-100.979 0-186.668 35.2-257.068 105.6s-105.6 156.088-105.6 257.068c0 100.977 35.2 186.668 105.6 257.066 70.4 70.4 156.088 105.6 257.068 105.6 50.488 0 97.6-9.422 141.332-28.267s82.132-44.8 115.2-77.867c33.068-33.066 59.023-71.465 77.868-115.201 18.844-43.732 28.265-90.844 28.265-141.332 0-53.332-8.709-104.532-26.132-153.6s-41.244-94.579-71.468-136.532c-30.221-41.956-66.132-80-107.732-114.135-41.6-34.132-86.932-62.932-136-86.4zM597.332 177.068c50.491 42.665 91.556 92.621 123.2 149.865s47.468 118.935 47.468 185.068c0 77.512-26.844 143.112-80.532 196.8-53.691 53.689-119.291 80.533-196.8 80.533-77.512 0-143.112-26.844-196.8-80.533-53.69-53.688-80.534-119.288-80.534-196.8s26.844-143.112 80.534-196.8c53.688-53.688 119.288-80.532 196.8-80.532h106.665v-57.6zM489.6 278.4c12.088 0 22.4 4.268 30.932 12.8 8.535 8.532 12.8 18.844 12.8 30.932s-4.265 22.4-12.8 30.935c-8.532 8.532-18.844 12.8-30.932 12.8s-22.4-4.268-30.932-12.8c-8.535-8.535-12.8-18.847-12.8-30.935s4.265-22.4 12.8-30.932c8.532-8.532 18.844-12.8 30.932-12.8zM458.668 413.868h64c0 21.332 2.132 36.265 6.4 44.8 4.265 8.532 17.777 24.177 40.532 46.932 12.8 12.8 23.468 26.668 32 41.6s12.8 30.932 12.8 48c0 36.268-12.268 63.468-36.8 81.6s-53.512 27.2-86.932 27.2c-31.291 0-57.6-8.712-78.935-26.132-21.332-17.423-36.265-38.579-44.8-63.468l59.735-23.468c3.556 12.088 10.309 24 20.265 35.735 9.956 11.732 24.535 17.6 43.735 17.6s33.6-5.335 43.2-16c9.6-10.668 14.4-22.4 14.4-35.2 0-12.091-3.556-22.935-10.668-32.535s-15.644-19.377-25.6-29.332c-24.888-21.332-40-38.223-45.332-50.668-5.335-12.444-8-34.665-8-66.665z" />
<glyph unicode="&#xe90a;" glyph-name="download" d="M512.006 277.334l-213.334 213.331 59.734 61.867 110.931-110.931v347.732h85.334v-347.732l110.934 110.931 59.731-61.867-213.331-213.331zM256.005 106.666c-23.467 0-43.555 8.356-60.266 25.068s-25.067 36.8-25.067 60.267v128h85.333v-128h512.001v128h85.331v-128c0-23.467-8.356-43.555-25.065-60.267-16.712-16.712-36.803-25.068-60.267-25.068h-512.001z" />
<glyph unicode="&#xe90b;" glyph-name="imagesearch" d="M640-21.333h-170.667c-12.090 0-22.221 4.089-30.399 12.268s-12.268 18.309-12.268 30.399v256c0 12.090 4.089 22.221 12.268 30.399s18.309 12.268 30.399 12.268h42.667v128h-341.333c-23.467 0-43.555 8.356-60.266 25.068s-25.067 36.799-25.067 60.266v170.667c0 23.467 8.355 43.555 25.067 60.266s36.8 25.067 60.266 25.067h85.333v42.667c0 12.089 4.089 22.222 12.267 30.4s18.311 12.267 30.4 12.267h512c12.090 0 22.221-4.089 30.399-12.267s12.268-18.311 12.268-30.4v-170.667c0-12.089-4.089-22.222-12.268-30.4s-18.309-12.267-30.399-12.267h-512c-12.089 0-22.222 4.089-30.4 12.267s-12.267 18.311-12.267 30.4v42.667h-85.333v-170.667h341.333c23.467 0 43.554-8.356 60.266-25.068s25.068-36.799 25.068-60.266v-128h42.667c12.090 0 22.221-4.089 30.399-12.268s12.268-18.309 12.268-30.399v-256c0-12.090-4.089-22.221-12.268-30.399s-18.309-12.268-30.399-12.268zM512 64h85.333v170.667h-85.333v-170.667zM341.333 704h426.667v85.333h-426.667v-85.333z" />
<glyph unicode="&#xe90c;" glyph-name="info" d="M469.333 234.667h85.333v256h-85.333v-256zM512 576c12.089 0 22.223 4.089 30.4 12.266s12.266 18.311 12.266 30.4c0 12.089-4.089 22.222-12.266 30.4s-18.311 12.267-30.4 12.267c-12.089 0-22.222-4.089-30.4-12.267s-12.267-18.311-12.267-30.4c0-12.089 4.089-22.222 12.267-30.4s18.311-12.266 30.4-12.266zM512 21.333c-59.022 0-114.489 11.201-166.4 33.599-51.911 22.403-97.067 52.799-135.467 91.199s-68.8 83.558-91.2 135.47c-22.4 51.911-33.6 107.378-33.6 166.4s11.2 114.489 33.6 166.4c22.4 51.911 52.8 97.067 91.2 135.467s83.556 68.8 135.467 91.2c51.911 22.4 107.378 33.6 166.4 33.6s114.489-11.2 166.4-33.6c51.911-22.4 97.070-52.8 135.47-91.2s68.796-83.556 91.199-135.467c22.397-51.911 33.599-107.378 33.599-166.4s-11.201-114.489-33.599-166.4c-22.403-51.911-52.799-97.070-91.199-135.47s-83.558-68.796-135.47-91.199c-51.911-22.397-107.378-33.599-166.4-33.599zM512 106.667c95.289 0 176.003 33.064 242.136 99.197s99.197 146.847 99.197 242.136c0 95.289-33.064 176-99.197 242.133s-146.847 99.2-242.136 99.2c-95.289 0-176-33.067-242.133-99.2s-99.2-146.844-99.2-242.133c0-95.289 33.067-176.003 99.2-242.136s146.844-99.197 242.133-99.197z" />
<glyph unicode="&#xe90d;" glyph-name="local_shipping" d="M256 106.667c-35.556 0-65.778 12.445-90.667 37.335-24.889 24.887-37.333 55.108-37.333 90.665h-85.333v469.333c0 23.467 8.355 43.555 25.067 60.266s36.8 25.067 60.266 25.067h597.333v-170.667h128l128-170.667v-213.333h-85.333c0-35.557-12.445-65.778-37.335-90.665-24.887-24.89-55.108-37.335-90.665-37.335s-65.778 12.445-90.665 37.335c-24.89 24.887-37.335 55.108-37.335 90.665h-256c0-35.557-12.445-65.778-37.335-90.665-24.887-24.89-55.109-37.335-90.665-37.335zM256 192c12.089 0 22.222 4.089 30.4 12.268s12.267 18.309 12.267 30.399c0 12.090-4.089 22.221-12.267 30.399s-18.311 12.268-30.4 12.268c-12.089 0-22.222-4.089-30.4-12.268s-12.267-18.309-12.267-30.399c0-12.090 4.089-22.221 12.267-30.399s18.311-12.268 30.4-12.268zM128 320h34.133c12.089 12.8 25.956 23.112 41.6 30.932 15.644 7.823 33.067 11.735 52.267 11.735s36.622-3.912 52.267-11.735c15.644-7.82 29.511-18.132 41.6-30.932h290.133v384h-512v-384zM768 192c12.090 0 22.221 4.089 30.399 12.268s12.268 18.309 12.268 30.399c0 12.090-4.089 22.221-12.268 30.399s-18.309 12.268-30.399 12.268c-12.090 0-22.221-4.089-30.399-12.268s-12.268-18.309-12.268-30.399c0-12.090 4.089-22.221 12.268-30.399s18.309-12.268 30.399-12.268zM725.333 405.333h181.333l-96 128h-85.333v-128z" />
<glyph unicode="&#xe90e;" glyph-name="location_on" d="M512.036 448.002c23.465 0 43.551 8.356 60.262 25.066s25.068 36.8 25.068 60.267c0 23.466-8.356 43.555-25.068 60.266s-36.797 25.066-60.262 25.066c-23.469 0-43.558-8.355-60.269-25.066s-25.067-36.8-25.067-60.266c0-23.467 8.356-43.556 25.067-60.267s36.8-25.066 60.269-25.066zM512.036 134.4c86.753 79.647 151.107 152.003 193.065 217.068 41.953 65.070 62.935 122.846 62.935 173.335 0 77.511-24.714 140.978-74.138 190.4-49.418 49.422-110.044 74.134-181.862 74.134-71.825 0-132.447-24.711-181.869-74.134s-74.134-112.889-74.134-190.4c0-50.489 20.978-108.264 62.934-173.335 41.955-65.065 106.311-137.421 193.069-217.068zM512.036 21.335c-114.491 97.423-200.003 187.909-256.536 271.468-56.533 83.553-84.8 160.888-84.8 231.999 0 106.666 34.311 191.645 102.934 254.934s148.089 94.933 238.403 94.933c90.307 0 169.774-31.644 238.397-94.933s102.932-148.267 102.932-254.934c0-71.111-28.268-148.446-84.797-231.999-56.535-83.558-142.044-174.044-256.532-271.468z" />
<glyph unicode="&#xe90f;" glyph-name="opacity" d="M512 64c-94.577 0-175.111 32.71-241.6 98.133s-99.734 145.067-99.734 238.933c0 46.223 8.889 89.423 26.667 129.601s42.311 75.909 73.6 107.199l241.067 236.8 241.067-236.8c31.29-31.29 55.822-67.021 73.602-107.199 17.777-40.178 26.665-83.377 26.665-129.601 0-93.867-33.246-173.51-99.734-238.933s-147.023-98.133-241.599-98.133zM258.133 362.667h505.6c8.533 51.2 3.734 94.932-14.401 131.202-18.132 36.263-36.799 63.642-55.999 82.132l-181.333 179.2-181.333-179.2c-19.2-18.49-38.044-45.868-56.533-82.132-18.489-36.27-23.822-80.002-16-131.202z" />
<glyph unicode="&#xe910;" glyph-name="phone_in_talk" d="M810.665 448c0 83.2-28.974 153.778-86.932 211.734-57.953 57.955-128.532 86.933-211.732 86.933v85.334c53.335 0 103.291-10.134 149.868-30.4s87.112-47.645 121.6-82.134c34.488-34.489 61.865-75.022 82.13-121.6 20.27-46.578 30.403-96.533 30.403-149.866h-85.335zM640 448c0 35.555-12.447 65.778-37.335 90.666s-55.112 37.334-90.665 37.334v85.334c59.023 0 109.332-20.8 150.932-62.4s62.403-91.911 62.403-150.934h-85.335zM851.2 64c-88.888 0-176.712 19.379-263.465 58.132-86.757 38.758-165.69 93.691-236.802 164.803s-126.045 150.042-164.8 236.798c-38.756 86.755-58.134 174.578-58.134 263.466 0 12.8 4.266 23.466 12.8 32s19.2 12.8 32 12.8h172.8c9.955 0 18.845-3.378 26.666-10.134s12.445-14.755 13.867-24l27.733-149.333c1.422-11.378 1.067-20.978-1.066-28.8s-6.045-14.578-11.734-20.267l-103.466-104.533c14.222-26.311 31.111-51.736 50.666-76.266 19.556-24.535 41.067-48.179 64.534-70.932 22.045-22.047 45.155-42.491 69.334-61.332 24.178-18.847 49.778-36.091 76.802-51.738l100.265 100.27c6.4 6.4 14.756 11.197 25.068 14.397s20.444 4.091 30.397 2.668l147.2-29.865c9.958-2.847 18.135-8.003 24.535-15.468s9.6-15.821 9.6-25.068v-172.8c0-12.8-4.265-23.465-12.8-32s-19.2-12.8-32-12.8zM257.066 576l70.4 70.4-18.133 100.266h-94.934c3.555-29.155 8.534-57.955 14.934-86.4s15.644-56.533 27.733-84.266zM638.935 194.135c27.73-12.088 55.997-21.688 84.797-28.8s57.779-11.735 86.932-13.87v93.87l-100.265 20.265-71.465-71.465z" />
<glyph unicode="&#xe911;" glyph-name="question_mark" d="M452.267 277.333c0 57.6 5.155 99.022 15.466 124.266s32.178 52.8 65.6 82.667c29.155 25.6 51.377 47.822 66.666 66.666s22.934 40.356 22.934 64.533c0 29.156-9.778 53.334-29.334 72.533-19.556 19.201-46.755 28.8-81.6 28.8-36.267 0-63.823-11.022-82.667-33.067s-32.177-44.444-40-67.2l-109.866 46.933c14.933 45.511 42.311 84.978 82.134 118.4s89.955 50.134 150.4 50.134c74.667 0 132.089-20.8 172.264-62.4 40.182-41.6 60.266-91.556 60.266-149.867 0-35.555-7.639-65.955-22.931-91.199-15.285-25.244-39.288-53.867-71.999-85.866-34.844-33.423-56-58.845-63.466-76.267s-11.2-47.112-11.2-89.067h-122.667zM512 21.333c-23.467 0-43.555 8.356-60.266 25.068s-25.067 36.796-25.067 60.266c0 23.47 8.356 43.554 25.067 60.266s36.8 25.068 60.266 25.068c23.467 0 43.555-8.356 60.266-25.068s25.067-36.796 25.067-60.266c0-23.47-8.356-43.554-25.067-60.266s-36.8-25.068-60.266-25.068z" />
<glyph unicode="&#xe912;" glyph-name="shopping_cart" d="M298.662 21.335c-23.468 0-43.555 8.353-60.266 25.065s-25.067 36.8-25.067 60.268c0 23.468 8.356 43.556 25.067 60.268 16.711 16.709 36.799 25.065 60.266 25.065s43.556-8.356 60.268-25.065c16.709-16.712 25.065-36.8 25.065-60.268s-8.356-43.556-25.065-60.268c-16.712-16.712-36.8-25.065-60.268-25.065zM725.33 21.335c-23.468 0-43.556 8.353-60.268 25.065s-25.068 36.8-25.068 60.268c0 23.468 8.356 43.556 25.068 60.268 16.712 16.709 36.8 25.065 60.268 25.065 23.465 0 43.556-8.356 60.265-25.065 16.712-16.712 25.068-36.8 25.068-60.268s-8.356-43.556-25.068-60.268c-16.709-16.712-36.8-25.065-60.265-25.065zM262.395 704.001l102.4-213.333h298.668l117.332 213.333h-518.4zM221.862 789.334h629.332c16.356 0 28.8-7.289 37.335-21.866 8.532-14.578 8.888-29.334 1.065-44.267l-151.465-273.065c-7.823-14.223-18.312-25.247-31.468-33.068-13.156-7.823-27.556-11.732-43.2-11.732h-317.868l-46.932-85.335h512v-85.332h-512c-32 0-56.178 14.044-72.533 42.132s-17.067 56-2.133 83.735l57.599 104.532-153.599 324.266h-85.334v85.334h138.667l40.533-85.334z" />
<glyph unicode="&#xe913;" glyph-name="stacks" d="M512 362.667l-469.333 256 469.333 256 469.333-256-469.333-256zM512 192l-444.8 242.135 89.6 49.063 355.2-194.13 355.198 194.13 89.6-49.063-444.798-242.135zM512 21.333l-444.8 242.135 89.6 49.063 355.2-194.13 355.198 194.13 89.6-49.063-444.798-242.135zM512 459.735l291.198 158.932-291.198 158.933-291.2-158.933 291.2-158.932z" />
<glyph unicode="&#xe914;" glyph-name="telegram" d="M511.748 874.667c-84.386 0-166.877-25.024-237.041-71.906s-124.852-113.519-157.145-191.482c-32.294-77.962-40.743-163.752-24.28-246.516s57.099-158.788 116.77-218.462c59.67-59.669 135.695-100.305 218.458-116.77 82.769-16.461 168.555-8.013 246.519 24.282 77.961 32.294 144.597 86.98 191.479 157.146 46.886 70.165 71.906 152.657 71.906 237.043 0.009 56.030-11.025 111.516-32.465 163.284s-52.868 98.805-92.489 138.426c-39.625 39.621-86.66 71.049-138.428 92.489s-107.251 32.473-163.285 32.468zM647.411 228.16c-1.6-3.981-4.028-7.573-7.13-10.543-3.098-2.965-6.797-5.235-10.846-6.656s-8.354-1.958-12.625-1.579c-4.275 0.38-8.418 1.668-12.151 3.78l-115.827 90.001-74.34-68.582c-1.725-1.276-3.742-2.095-5.868-2.385s-4.289-0.043-6.292 0.725l14.25 127.505 0.457-0.363 0.291 2.517c0 0 208.428 189.762 216.918 197.847 8.597 8.064 5.76 9.813 5.76 9.813 0.491 9.836-15.424 0-15.424 0l-276.163-177.666-115.007 39.168c0 0-17.664 6.336-19.328 20.267-1.749 13.824 19.904 21.333 19.904 21.333l457.257 181.654c0 0 37.589 16.748 37.589-10.987l-81.425-415.851z" />
<glyph unicode="&#xe915;" glyph-name="verified_user" d="M468.288 300.229l235.188 235.185-59.317 59.317-175.871-175.868-87.415 87.415-59.317-59.317 146.732-146.732zM511.995 31.742c-96.433 24.281-176.043 79.607-238.829 165.983-62.785 86.373-94.178 182.287-94.178 287.739v253.919l333.007 124.878 333.010-124.878v-253.919c0-105.452-31.394-201.366-94.181-287.739-62.786-86.376-142.396-141.702-238.829-165.983zM511.995 119.154c72.152 22.895 131.816 68.685 178.993 137.368s70.763 144.996 70.763 228.941v196.683l-249.756 93.659-249.756-93.659v-196.683c0-83.946 23.589-160.258 70.766-228.941s106.838-114.473 178.99-137.368z" />
<glyph unicode="&#xe916;" glyph-name="water_voc" d="M170.667 371.2c0 71.11 28.266 148.446 84.8 232.001s142.043 174.043 256.533 271.466c83.91-71.111 151.999-138.667 204.268-202.667 52.265-64 89.777-124.802 112.531-182.398h-92.798c-19.91 40.53-48.357 83.377-85.333 128.532s-83.2 92.977-138.667 143.466c-84.623-77.511-148.446-148.978-191.467-214.402-43.022-65.42-64.533-124.088-64.533-175.998 0-76.090 24.178-139.199 72.533-189.334 48.357-50.132 109.51-75.199 183.467-75.199v-85.333c-97.423 0-178.667 33.423-243.733 100.267s-97.6 150.043-97.6 249.6zM631.467 1.065l-18.132 40.537c-5.69 12.087-9.779 24.709-12.268 37.864s-3.734 26.491-3.734 40.001c0 15.643 1.778 31.113 5.332 46.401 3.557 15.288 8.892 30.044 16.002 44.264 5.69 12.090 10.667 24.358 14.933 36.803s6.4 25.423 6.4 38.932c0 10.667-1.246 20.978-3.734 30.932-2.488 9.957-5.864 19.913-10.131 29.867l-14.937 32.003 58.668 25.6 18.132-38.4c5.69-12.090 9.779-24.89 12.268-38.4 2.488-13.513 3.734-27.378 3.734-41.602 0-15.643-1.778-30.932-5.332-45.868-3.557-14.93-8.892-29.508-16.002-43.732-5.69-12.090-10.667-24.535-14.933-37.335s-6.4-25.955-6.4-39.465c0-9.957 1.065-19.732 3.202-29.334 2.13-9.598 5.332-19.023 9.598-28.266l16.002-35.202-58.668-25.6zM759.467 1.065l-18.132 40.537c-5.69 12.087-9.779 24.709-12.268 37.864s-3.734 26.491-3.734 40.001c0 15.643 1.778 31.113 5.332 46.401 3.557 15.288 8.892 30.044 16.002 44.264 5.69 12.090 10.667 24.358 14.933 36.803s6.4 25.423 6.4 38.932c0 10.667-1.246 20.978-3.734 30.932-2.488 9.957-5.864 19.913-10.131 29.867l-14.937 32.003 58.668 25.6 18.132-38.4c5.69-12.8 9.779-25.781 12.268-38.936s3.734-26.842 3.734-41.066c0-15.643-1.778-30.932-5.332-45.868-3.557-14.93-8.892-29.508-16.002-43.732-5.69-12.090-10.667-24.535-14.933-37.335s-6.4-25.955-6.4-39.465c0-9.957 1.065-19.732 3.202-29.334 2.13-9.598 5.332-19.023 9.598-28.266l16.002-35.202-58.668-25.6zM887.467 1.065l-18.132 40.537c-5.69 12.087-9.779 24.709-12.268 37.864s-3.734 26.491-3.734 40.001c0 15.643 1.778 31.113 5.332 46.401 3.557 15.288 8.892 30.044 16.002 44.264 5.69 12.090 10.667 24.358 14.933 36.803s6.4 25.423 6.4 38.932c0 10.667-1.246 20.978-3.734 30.932-2.488 9.957-5.864 19.913-10.131 29.867l-14.937 32.003 58.668 25.6 18.132-38.4c5.69-12.090 9.779-24.89 12.268-38.4 2.488-13.513 3.734-27.378 3.734-41.602 0-15.643-1.778-31.113-5.332-46.401-3.557-15.288-8.892-30.044-16.002-44.264-5.69-12.090-10.667-24.358-14.933-36.803s-6.4-25.423-6.4-38.932c0-9.957 1.065-19.732 3.202-29.334 2.13-9.598 5.332-19.023 9.598-28.266l16.002-35.202-58.668-25.6z" />
<glyph unicode="&#xe917;" glyph-name="whatsapp" d="M747.94 346.424c-12.646 6.349-75.008 37.069-86.63 41.267-11.622 4.25-20.070 6.349-28.518-6.349-8.448-12.646-32.768-41.267-40.192-49.715-7.373-8.448-14.797-9.472-27.443-3.123-37.376 14.879-71.869 36.157-101.94 62.874-27.734 25.636-51.511 55.245-70.554 87.862-7.373 12.698-0.768 19.558 5.581 25.856 5.683 5.683 12.698 14.797 18.995 22.221 5.216 6.409 9.491 13.529 12.698 21.146 1.687 3.5 2.472 7.366 2.285 11.247s-1.342 7.653-3.36 10.974c-3.174 6.349-28.518 68.762-39.066 94.157-10.291 24.678-20.736 21.35-28.57 21.76-7.373 0.358-15.821 0.461-24.269 0.461-6.426-0.179-12.746-1.687-18.562-4.427s-11.001-6.654-15.23-11.496c-14.334-13.575-25.685-29.987-33.328-48.19s-11.41-37.799-11.063-57.538c4.111-47.833 22.102-93.424 51.763-131.177 54.37-81.51 129.005-147.482 216.577-191.437 23.624-10.148 47.749-19.067 72.294-26.726 25.871-7.854 53.222-9.554 79.872-4.966 17.649 3.579 34.365 10.772 49.091 21.14 14.725 10.363 27.141 23.665 36.465 39.071 8.315 18.949 10.88 39.926 7.373 60.314-3.123 5.325-11.571 8.448-24.269 14.797zM875.53 811.272c-87.045 87.022-202.742 139.448-325.56 147.517s-244.383-28.768-342.063-103.653c-97.68-74.885-164.819-182.716-188.918-303.416-24.098-120.698-3.513-246.046 57.923-352.7l-71.987-262.907 269.005 70.502c74.402-40.515 157.767-61.742 242.484-61.747h0.205c100.357 0.051 198.446 29.844 281.876 85.622 83.43 55.772 148.46 135.025 186.865 227.743 38.41 92.713 48.476 194.735 28.928 293.169s-67.835 188.867-138.757 259.871v-0.001zM740.721 95.037c-67.169-42.102-144.829-64.44-224.102-64.461h-0.205c-75.526 0-149.659 20.321-214.631 58.829l-15.411 9.114-159.642-41.882 42.598 155.648-9.984 15.974c-44.311 70.661-66.674 152.878-64.259 236.252 2.414 83.373 29.497 164.158 77.823 232.14s115.726 120.106 193.676 149.783c77.95 29.677 162.947 35.573 244.253 16.943 81.3-18.63 155.249-60.95 212.5-121.608 57.247-60.658 95.227-136.93 109.128-219.171 13.901-82.243 3.108-166.759-31.022-242.863-34.13-76.109-90.061-140.38-160.722-184.699z" />
<glyph unicode="&#xe918;" glyph-name="workspace" d="M412.802 375.467l37.332 121.6-98.133 78.933h121.6l38.4 119.467 38.4-119.467h121.6l-99.202-78.933 37.335-121.6-98.133 75.735-99.198-75.735zM256-21.333v329.598c-27.022 29.867-48 64-62.933 102.4s-22.4 79.292-22.4 122.668c0 95.289 33.067 176 99.2 242.133s146.843 99.2 242.133 99.2c95.29 0 175.998-33.067 242.135-99.2 66.13-66.133 99.198-146.844 99.198-242.133 0-43.377-7.468-84.268-22.398-122.668-14.937-38.4-35.912-72.533-62.935-102.4v-329.598l-256 85.333-256-85.333zM512 277.333c71.11 0 131.557 24.89 181.333 74.667s74.667 110.223 74.667 181.333c0 71.11-24.89 131.556-74.667 181.333s-110.223 74.667-181.333 74.667c-71.11 0-131.557-24.889-181.333-74.667-49.778-49.778-74.667-110.223-74.667-181.333s24.889-131.557 74.667-181.333c49.777-49.777 110.223-74.667 181.333-74.667zM341.333 105.602l170.667 43.732 170.667-43.732v132.267c-24.89-14.223-51.732-25.423-80.534-33.601-28.798-8.178-58.842-12.268-90.132-12.268s-61.334 4.089-90.132 12.268c-28.802 8.178-55.644 19.377-80.534 33.601v-132.267z" />
<glyph unicode="&#xe919;" glyph-name="menu" horiz-adv-x="1067" d="M149.333 192v85.333h768v-85.333h-768zM149.333 405.333v85.333h768v-85.333h-768zM149.333 618.667v85.333h768v-85.333h-768z" />
</font>
</defs>
</svg>
