<svg width="79" height="40" fill="none" xmlns="http://www.w3.org/2000/svg"><path d="M30.877 0c2.645 0 4.67.913 6.074 2.739 1.428 1.778 1.896 3.955 1.404 6.53-.023.28-.14.737-.351 1.37H23.328c0 1.544.48 2.761 1.44 3.65.96.866 2.258 1.3 3.897 1.3 2.34 0 4.201-.867 5.582-2.599l2.282 1.65c-.889 1.194-2.06 2.13-3.51 2.81-1.452.678-3.02 1.017-4.705 1.017-2.762 0-4.88-.924-6.355-2.773-1.451-1.85-1.954-4.12-1.51-6.811.445-2.552 1.65-4.67 3.617-6.355C26.032.843 28.302 0 30.876 0zm-7.092 7.935h11.691c.07-1.639-.328-2.891-1.194-3.757-.866-.866-2.06-1.299-3.58-1.299-1.64 0-3.079.456-4.32 1.37-1.216.889-2.082 2.117-2.597 3.686zm33.061 5.898L63.025.456h3.335l-8.566 17.555h-3.125l-1.79-13.025-6.32 13.025h-3.195L40.977.456h3.019l1.615 13.342L52 .456h3.054l-.035.07 1.826 13.307zM27.647 40c-2.575 0-4.658-.901-6.25-2.703-1.567-1.78-2.106-4.061-1.614-6.847.491-2.715 1.778-4.88 3.862-6.495 2.083-1.615 4.4-2.422 6.951-2.422 2.505 0 4.518.9 6.039 2.703 1.521 1.802 2.048 4.061 1.58 6.776-.445 2.739-1.697 4.927-3.757 6.566C32.422 39.191 30.152 40 27.648 40zm.246-2.984c1.709 0 3.265-.562 4.67-1.685 1.427-1.124 2.305-2.669 2.633-4.635.327-1.896-.024-3.394-1.054-4.494-1.03-1.123-2.375-1.685-4.037-1.685-1.662.047-3.195.608-4.6 1.685-1.38 1.077-2.27 2.598-2.668 4.564-.328 1.99.012 3.535 1.018 4.635 1.03 1.123 2.376 1.661 4.038 1.615zm24.174-15.483c2.06 0 3.616.655 4.67 1.966 1.1 1.287 1.45 3.043 1.053 5.266l-1.896 10.779h-3.055L54.7 28.94c.258-1.452.082-2.563-.527-3.336-.608-.772-1.615-1.158-3.019-1.158-1.545 0-2.867.491-3.967 1.474s-1.814 2.423-2.142 4.319v-.035l-1.65 9.339H40.34l3.09-17.555h3.054l-.42 2.317c1.497-1.849 3.498-2.773 6.003-2.773zm19.15 0c2.645 0 4.67.912 6.074 2.738 1.428 1.779 1.896 3.956 1.404 6.53-.023.281-.14.738-.35 1.37H63.668c0 1.544.48 2.762 1.44 3.651.959.866 2.258 1.3 3.896 1.3 2.341 0 4.202-.867 5.583-2.599l2.282 1.65c-.89 1.194-2.06 2.13-3.511 2.809-1.451.679-3.02 1.018-4.705 1.018-2.762 0-4.88-.925-6.354-2.774-1.452-1.849-1.955-4.12-1.51-6.81.445-2.552 1.65-4.67 3.616-6.355 1.966-1.686 4.237-2.528 6.811-2.528zm-7.092 7.934h11.692c.07-1.638-.328-2.89-1.194-3.756-.866-.866-2.06-1.3-3.581-1.3-1.639 0-3.078.457-4.319 1.37-1.217.89-2.083 2.118-2.598 3.686zM11.726 0c2.06 0 3.617.655 4.67 1.966 1.1 1.287 1.451 3.043 1.053 5.266L14.847 21.99h4.704l-.526 2.95h-4.67l-1.685 9.514c-.164.842-.105 1.45.176 1.825.304.375.807.574 1.51.597.701 0 1.568-.023 2.597-.07l-.491 2.739c-2.622.35-4.518.117-5.688-.703-1.147-.819-1.533-2.282-1.158-4.388l1.65-9.515H7.79l.562-2.949h3.44L14.36 7.408c.257-1.451.082-2.563-.527-3.335-.609-.773-1.615-1.159-3.02-1.159-1.544 0-2.867.492-3.967 1.475-1.1.983-1.814 2.422-2.141 4.318v-.035l-1.65 9.339H0L3.09.456h3.054l-.421 2.318C7.22.924 9.222 0 11.726 0z" fill="#26357F"/></svg>