<svg width="50" height="50" fill="none" xmlns="http://www.w3.org/2000/svg"><path d="M50 0H0v50h50V0z" fill="#151515"/><path d="M50 0H0v50h50V0z" fill="#FF0032"/><path d="M33.31 3.845v2.301h5.03v9.236h2.813V6.145h5.022v-2.3H33.309zm-18.092 0l-3.682 7.63-3.672-7.63H3.845v11.537h2.823V7.128l3.59 6.975h2.567l3.59-6.975v8.254h2.812V3.845h-4.01zM43.362 42.31c-.072.46-.256.838-.552 1.124-.276.266-.655.46-1.125.573-.46.102-1.146.164-1.861.164-.747 0-1.402-.093-1.964-.287a2.41 2.41 0 01-1.268-.961c-.307-.45-.46-1.105-.46-1.954v-1.176c0-.838.153-1.493.46-1.953a2.45 2.45 0 011.268-.961c.552-.195 1.217-.287 1.964-.287.715 0 1.4.062 1.86.164.471.112.85.297 1.126.573.296.286.48.664.552 1.125h2.812c-.081-.952-.398-1.76-.96-2.414-.512-.593-1.228-1.023-2.118-1.288-.859-.256-1.994-.39-3.272-.39-1.35 0-2.516.195-3.478.574a4.463 4.463 0 00-2.25 1.922c-.5.849-.756 1.995-.777 3.385v.133l.153.01-.153.01v.134c.02 1.39.276 2.536.777 3.385a4.463 4.463 0 002.25 1.923c.962.378 2.128.572 3.478.572 1.278 0 2.413-.133 3.272-.388.89-.266 1.596-.696 2.117-1.289.563-.644.89-1.462.961-2.414h-2.812v-.01z" fill="#fff"/></svg>